<?xml version="1.0" encoding="utf-8"?>
<!-- Generator: Adobe Illustrator 21.1.0, SVG Export Plug-In . SVG Version: 6.00 Build 0)  -->
<svg version="1.1" id="Camada_1" xmlns="http://www.w3.org/2000/svg" xmlns:xlink="http://www.w3.org/1999/xlink" x="0px" y="0px"
	 viewBox="0 0 552 218" style="enable-background:new 0 0 552 218;" xml:space="preserve">
<style type="text/css">
	.st0{fill:#221E1F;}
	.st1{fill-rule:evenodd;clip-rule:evenodd;fill:#EC1B23;}
	.st2{fill-rule:evenodd;clip-rule:evenodd;fill:#00B8F1;}
</style>
<g>
	<g>
		<path class="st0" d="M262.5,142.9c-0.4-0.2-0.5-0.3-0.5-1.2c0-1.6,0.1-2.8,0.2-3.3c0-0.3,0.1-0.5,0.2-0.5c0.2,0,0.2,0.1,0.2,0.3
			c0,0.3,0,0.7,0.1,1.1c0.5,2.3,2.5,3.2,4.6,3.2c3,0,4.4-2.1,4.4-4.1c0-2.1-0.9-3.4-3.6-5.6l-1.4-1.1c-3.3-2.7-4-4.6-4-6.7
			c0-3.3,2.5-5.6,6.4-5.6c1.2,0,2.1,0.1,2.9,0.3c0.6,0.1,0.8,0.2,1.1,0.2c0.2,0,0.3,0.1,0.3,0.2s-0.1,1.2-0.1,3.3
			c0,0.5-0.1,0.7-0.2,0.7c-0.2,0-0.2-0.2-0.2-0.4c0-0.4-0.2-1.2-0.4-1.6c-0.2-0.3-1-1.6-3.9-1.6c-2.1,0-3.8,1.3-3.8,3.6
			c0,1.8,0.8,2.9,3.8,5.2l0.9,0.7c3.7,2.9,4.5,4.8,4.5,7.3c0,1.3-0.5,3.6-2.6,5.1c-1.3,0.9-3,1.3-4.7,1.3
			C265.2,143.7,263.8,143.5,262.5,142.9z"/>
	</g>
	<g>
		<path class="st0" d="M292.4,123.9c0.3-0.9,0.5-1,0.7-1c0.3,0,0.4,0.4,0.7,1c0.5,1.1,4.9,12,6.5,16c1,2.4,1.7,2.7,2.3,2.9
			c0.4,0.1,0.8,0.2,1.1,0.2c0.2,0,0.3,0.1,0.3,0.2c0,0.2-0.3,0.2-0.6,0.2c-0.4,0-2.4,0-4.3-0.1c-0.5,0-1,0-1-0.2
			c0-0.1,0.1-0.1,0.2-0.2c0.2-0.1,0.4-0.3,0.2-0.7l-2.5-6c-0.1-0.1-0.1-0.2-0.2-0.2h-6.3c-0.1,0-0.2,0.1-0.3,0.2l-1.6,4.2
			c-0.2,0.7-0.4,1.3-0.4,1.8c0,0.5,0.5,0.7,0.9,0.7h0.2c0.2,0,0.3,0.1,0.3,0.2c0,0.2-0.2,0.2-0.4,0.2c-0.7,0-2.1-0.1-2.5-0.1
			c-0.3,0-1.6,0.1-2.8,0.1c-0.3,0-0.5-0.1-0.5-0.2c0-0.1,0.1-0.2,0.2-0.2c0.2,0,0.6,0,0.8-0.1c1.2-0.2,1.8-1.1,2.3-2.4L292.4,123.9z
			 M295.5,134.8c0.1,0,0.1-0.1,0.1-0.2l-2.7-7.2c-0.2-0.4-0.3-0.4-0.5,0l-2.5,7.2c0,0.1,0,0.2,0.1,0.2H295.5z"/>
	</g>
	<g>
		<path class="st0" d="M315.6,139.7c0.1,2.2,0.3,2.8,1.1,3c0.5,0.1,1.1,0.2,1.4,0.2c0.1,0,0.2,0.1,0.2,0.2c0,0.2-0.2,0.2-0.5,0.2
			c-1.6,0-2.6-0.1-2.9-0.1c-0.2,0-1.4,0.1-2.6,0.1c-0.3,0-0.4,0-0.4-0.2c0-0.1,0.1-0.2,0.2-0.2c0.2,0,0.7,0,1.1-0.2
			c0.7-0.2,0.8-0.9,0.8-3.3v-15.1c0-1.1,0.2-1.3,0.4-1.3c0.3,0,0.8,0.5,1.1,0.8c0.4,0.4,4.4,4.7,8.6,9c2.7,2.8,5.6,5.9,6.5,6.8
			l-0.3-13.2c0-1.7-0.2-2.3-1-2.5c-0.5-0.1-1.1-0.1-1.3-0.1c-0.2,0-0.2-0.2-0.2-0.2c0-0.2,0.2-0.2,0.5-0.2c1.2,0,2.5,0.1,2.9,0.1
			c0.3,0,1.2-0.1,2.3-0.1c0.3,0,0.5,0,0.5,0.2c0,0.1-0.1,0.2-0.3,0.2c-0.1,0-0.3,0-0.7,0.1c-0.9,0.2-1,0.7-1,2.3l-0.1,15.4
			c0,1.7,0,1.9-0.2,1.9c-0.3,0-0.6-0.2-2.1-1.6c-0.3-0.2-4.2-4.1-7.1-7.1c-3.2-3.3-6.2-6.5-7.1-7.5L315.6,139.7z"/>
	</g>
	<g>
		<path class="st0" d="M353,135.6c0,2.5,0,4.6,0.1,5.7c0.1,0.8,0.2,1.3,1.1,1.4c0.4,0.1,1,0.1,1.2,0.1c0.2,0,0.2,0.1,0.2,0.2
			c0,0.1-0.1,0.2-0.4,0.2c-1.5,0-3.2-0.1-3.4-0.1c-0.1,0-2,0.1-2.8,0.1c-0.3,0-0.4-0.1-0.4-0.2c0-0.1,0.1-0.2,0.2-0.2
			c0.2,0,0.6-0.1,0.8-0.1c0.6-0.1,0.7-0.7,0.8-1.4c0.1-1.1,0.1-3.2,0.1-5.7v-11.1l-3.9,0.1c-1.7,0-2.4,0.2-2.8,0.8
			c-0.3,0.5-0.3,0.7-0.4,0.8c-0.1,0.2-0.2,0.2-0.3,0.2c-0.1,0-0.2-0.1-0.2-0.2c0-0.3,0.6-2.6,0.6-2.9c0.1-0.2,0.2-0.5,0.3-0.5
			c0.2,0,0.5,0.2,1.2,0.3c0.8,0.1,1.8,0.1,2.1,0.1h10.3c0.9,0,1.5-0.1,2-0.1c0.4-0.1,0.7-0.1,0.8-0.1s0.1,0.2,0.1,0.3
			c0,0.8-0.1,2.7-0.1,3c0,0.2-0.1,0.3-0.2,0.3s-0.2-0.1-0.2-0.5l0-0.3c-0.1-0.8-0.7-1.4-3.3-1.5l-3.4-0.1V135.6z"/>
	</g>
	<g>
		<path class="st0" d="M375.7,123.9c0.3-0.9,0.5-1,0.7-1c0.3,0,0.4,0.4,0.7,1c0.5,1.1,4.9,12,6.5,16c1,2.4,1.7,2.7,2.3,2.9
			c0.4,0.1,0.8,0.2,1.1,0.2c0.2,0,0.3,0.1,0.3,0.2c0,0.2-0.3,0.2-0.6,0.2c-0.4,0-2.4,0-4.3-0.1c-0.5,0-1,0-1-0.2
			c0-0.1,0.1-0.1,0.2-0.2c0.2-0.1,0.4-0.3,0.2-0.7l-2.5-6c-0.1-0.1-0.1-0.2-0.2-0.2h-6.3c-0.1,0-0.2,0.1-0.3,0.2l-1.6,4.2
			c-0.2,0.7-0.4,1.3-0.4,1.8c0,0.5,0.5,0.7,0.9,0.7h0.2c0.2,0,0.3,0.1,0.3,0.2c0,0.2-0.2,0.2-0.4,0.2c-0.7,0-2.1-0.1-2.5-0.1
			c-0.3,0-1.6,0.1-2.8,0.1c-0.3,0-0.5-0.1-0.5-0.2c0-0.1,0.1-0.2,0.2-0.2c0.2,0,0.6,0,0.8-0.1c1.2-0.2,1.8-1.1,2.3-2.4L375.7,123.9z
			 M378.7,134.8c0.1,0,0.1-0.1,0.1-0.2l-2.7-7.2c-0.2-0.4-0.3-0.4-0.5,0l-2.5,7.2c0,0.1,0,0.2,0.1,0.2H378.7z"/>
	</g>
	<g>
		<path class="st0" d="M408.7,140.4c-3-2.7-3.8-6.2-3.8-9.2c0-2.1,0.7-5.7,3.5-8.5c1.9-1.9,4.7-3.3,9.5-3.3c1.2,0,3,0.1,4.5,0.4
			c1.2,0.2,2.2,0.4,3.2,0.5c0.3,0,0.4,0.2,0.4,0.3c0,0.2-0.1,0.6-0.2,1.7c-0.1,1-0.1,2.7-0.1,3.2c0,0.5-0.1,0.7-0.3,0.7
			c-0.2,0-0.2-0.2-0.2-0.7c0-1.2-0.5-2.5-1.3-3.2c-1.1-0.9-3.5-1.8-6.2-1.8c-4.1,0-6,1.2-7.1,2.3c-2.3,2.2-2.8,4.9-2.8,8.1
			c0,5.9,4.6,11.4,11.2,11.4c2.3,0,4.2-0.3,5.4-1.6c0.7-0.7,1.1-2,1.1-2.6c0.1-0.3,0.1-0.5,0.3-0.5c0.2,0,0.2,0.2,0.2,0.5
			c0,0.2-0.4,2.9-0.7,4c-0.2,0.6-0.2,0.7-0.8,0.9c-1.2,0.5-3.6,0.7-5.6,0.7C414.3,143.7,411.2,142.6,408.7,140.4z"/>
	</g>
	<g>
		<path class="st0" d="M443.7,123.9c0.3-0.9,0.5-1,0.7-1c0.3,0,0.4,0.4,0.7,1c0.5,1.1,4.9,12,6.5,16c1,2.4,1.7,2.7,2.3,2.9
			c0.4,0.1,0.8,0.2,1.1,0.2c0.2,0,0.3,0.1,0.3,0.2c0,0.2-0.3,0.2-0.6,0.2c-0.4,0-2.4,0-4.3-0.1c-0.5,0-1,0-1-0.2
			c0-0.1,0.1-0.1,0.2-0.2c0.2-0.1,0.4-0.3,0.2-0.7l-2.5-6c-0.1-0.1-0.1-0.2-0.2-0.2h-6.3c-0.1,0-0.2,0.1-0.3,0.2l-1.6,4.2
			c-0.2,0.7-0.4,1.3-0.4,1.8c0,0.5,0.5,0.7,0.9,0.7h0.2c0.2,0,0.3,0.1,0.3,0.2c0,0.2-0.2,0.2-0.4,0.2c-0.7,0-2.1-0.1-2.5-0.1
			c-0.3,0-1.6,0.1-2.8,0.1c-0.3,0-0.5-0.1-0.5-0.2c0-0.1,0.1-0.2,0.2-0.2c0.2,0,0.6,0,0.8-0.1c1.2-0.2,1.8-1.1,2.3-2.4L443.7,123.9z
			 M446.8,134.8c0.1,0,0.1-0.1,0.1-0.2l-2.7-7.2c-0.2-0.4-0.3-0.4-0.5,0l-2.5,7.2c0,0.1,0,0.2,0.1,0.2H446.8z"/>
	</g>
	<g>
		<path class="st0" d="M463.7,142.9c-0.4-0.2-0.4-0.3-0.4-1c0-1.3,0.1-2.4,0.2-2.8c0-0.3,0.1-0.4,0.2-0.4s0.2,0.1,0.2,0.3
			c0,0.2,0,0.6,0.1,1c0.4,1.9,2.5,2.6,4.3,2.6c2.7,0,4.1-1.5,4.1-3.5c0-1.9-1-2.8-3.4-4.6l-1.2-0.9c-2.9-2.2-3.9-3.8-3.9-5.6
			c0-3.1,2.5-5,6-5c1.1,0,2.2,0.2,2.8,0.3c0.5,0.1,0.7,0.1,1,0.1s0.3,0,0.3,0.2c0,0.1-0.1,1-0.1,2.8c0,0.4,0,0.6-0.2,0.6
			c-0.2,0-0.2-0.1-0.2-0.3c0-0.3-0.2-1-0.4-1.3c-0.2-0.3-1.1-1.3-3.5-1.3c-2,0-3.6,1-3.6,2.9c0,1.7,0.8,2.6,3.5,4.5l0.8,0.5
			c3.3,2.3,4.5,4.1,4.5,6.4c0,1.6-0.6,3.2-2.5,4.5c-1.1,0.7-2.9,0.9-4.3,0.9C466.4,143.6,464.8,143.4,463.7,142.9z"/>
	</g>
	<g>
		<path class="st0" d="M493.2,123.9c0.3-0.9,0.5-1,0.7-1c0.3,0,0.4,0.4,0.7,1c0.5,1.1,4.9,12,6.5,16c1,2.4,1.7,2.7,2.3,2.9
			c0.4,0.1,0.8,0.2,1.1,0.2c0.2,0,0.3,0.1,0.3,0.2c0,0.2-0.3,0.2-0.6,0.2c-0.4,0-2.4,0-4.3-0.1c-0.5,0-1,0-1-0.2
			c0-0.1,0.1-0.1,0.2-0.2c0.2-0.1,0.4-0.3,0.2-0.7l-2.5-6c-0.1-0.1-0.1-0.2-0.2-0.2h-6.3c-0.1,0-0.2,0.1-0.3,0.2l-1.6,4.2
			c-0.2,0.7-0.4,1.3-0.4,1.8c0,0.5,0.5,0.7,0.9,0.7h0.2c0.2,0,0.3,0.1,0.3,0.2c0,0.2-0.2,0.2-0.4,0.2c-0.7,0-2.1-0.1-2.5-0.1
			c-0.3,0-1.6,0.1-2.8,0.1c-0.3,0-0.5-0.1-0.5-0.2c0-0.1,0.1-0.2,0.2-0.2c0.2,0,0.6,0,0.8-0.1c1.2-0.2,1.8-1.1,2.3-2.4L493.2,123.9z
			 M496.3,134.8c0.1,0,0.1-0.1,0.1-0.2l-2.7-7.2c-0.2-0.4-0.3-0.4-0.5,0l-2.5,7.2c0,0.1,0,0.2,0.1,0.2H496.3z"/>
	</g>
	<g>
		<path class="st0" d="M274.8,195.9c0,8.1,0,12.4,1.3,13.5c1.1,0.9,2.7,1.4,7.6,1.4c3.3,0,5.8-0.1,7.4-1.8c0.8-0.8,1.5-2.6,1.6-3.8
			c0.1-0.6,0.2-0.9,0.7-0.9c0.4,0,0.5,0.3,0.5,1.1c0,0.7-0.4,5.4-0.9,7.2c-0.4,1.4-0.7,1.7-4,1.7c-4.5,0-7.8-0.1-10.6-0.2
			c-2.8-0.1-5.1-0.2-7.7-0.2c-0.7,0-2.1,0-3.6,0.1c-1.4,0-3.1,0.1-4.3,0.1c-0.8,0-1.3-0.2-1.3-0.6c0-0.3,0.3-0.5,1-0.5
			c0.9,0,1.7-0.1,2.3-0.3c1.3-0.3,1.6-1.6,1.8-3.5c0.3-2.6,0.3-7.6,0.3-13.4v-11.1c0-9.6,0-11.3-0.1-13.4c-0.1-2.1-0.6-3.1-2.7-3.6
			c-0.5-0.1-1.3-0.2-2.1-0.2c-0.7,0-1.1-0.1-1.1-0.6c0-0.4,0.4-0.6,1.4-0.6c3,0,6.9,0.2,8.6,0.2c1.5,0,6.1-0.2,8.6-0.2
			c0.9,0,1.3,0.1,1.3,0.6c0,0.4-0.4,0.6-1.1,0.6c-0.7,0-1.7,0.1-2.5,0.2c-1.7,0.3-2.2,1.4-2.3,3.6c-0.1,2-0.1,3.8-0.1,13.4V195.9z"
			/>
	</g>
	<g>
		<path class="st0" d="M297.9,190.3c0-10.8,7.1-24.7,26-24.7c15.7,0,25.4,9.1,25.4,23.6c0,14.4-10.1,25.8-26.1,25.8
			C305.2,215,297.9,201.5,297.9,190.3z M340.5,191.5c0-14.1-8.1-22.9-18.5-22.9c-7.2,0-15.5,4-15.5,19.7c0,13.1,7.2,23.5,19.3,23.5
			C330.3,211.9,340.5,209.7,340.5,191.5z"/>
	</g>
	<g>
		<path class="st0" d="M362.5,184.8c0-9.6,0-11.3-0.1-13.4c-0.1-2.1-0.6-3.1-2.7-3.6c-0.5-0.1-1.6-0.2-2.5-0.2
			c-0.7,0-1.1-0.1-1.1-0.6c0-0.4,0.4-0.6,1.4-0.6c3.3,0,7.3,0.2,8.6,0.2c2.1,0,6.9-0.2,8.9-0.2c4,0,8.2,0.4,11.6,2.7
			c1.8,1.2,4.3,4.4,4.3,8.6c0,4.7-2,8.9-8.3,14.1c5.6,7.1,10,12.7,13.7,16.6c3.5,3.7,6.1,4.1,7.1,4.3c0.7,0.1,1.3,0.2,1.8,0.2
			s0.8,0.2,0.8,0.5c0,0.5-0.4,0.6-1.2,0.6h-6c-3.5,0-5.1-0.3-6.7-1.2c-2.7-1.4-5.1-4.4-8.6-9.3c-2.5-3.5-5.4-7.7-6.2-8.7
			c-0.3-0.4-0.7-0.4-1.1-0.4l-5.5-0.1c-0.3,0-0.5,0.1-0.5,0.5v0.9c0,5.9,0,10.8,0.3,13.5c0.2,1.8,0.6,3.2,2.5,3.5
			c0.9,0.1,2.3,0.3,3.1,0.3c0.5,0,0.8,0.2,0.8,0.5c0,0.4-0.4,0.6-1.3,0.6c-3.7,0-8.3-0.2-9.3-0.2c-1.2,0-5.2,0.2-7.7,0.2
			c-0.8,0-1.3-0.2-1.3-0.6c0-0.3,0.3-0.5,1-0.5c0.9,0,1.7-0.1,2.3-0.3c1.3-0.3,1.6-1.6,1.8-3.5c0.3-2.6,0.3-7.6,0.3-13.4V184.8z
			 M369.9,189.8c0,0.7,0.1,0.9,0.6,1.1c1.3,0.4,3.2,0.6,4.8,0.6c2.5,0,3.3-0.3,4.5-1.1c1.9-1.4,3.7-4.3,3.7-9.4
			c0-8.9-5.9-11.5-9.6-11.5c-1.6,0-2.7,0.1-3.3,0.3c-0.4,0.1-0.6,0.4-0.6,0.9V189.8z"/>
		<path class="st0" d="M410.1,184.8c0-9.6,0-11.3-0.1-13.4c-0.1-2.1-0.6-3.1-2.7-3.6c-0.5-0.1-1.6-0.2-2.5-0.2
			c-0.7,0-1.1-0.1-1.1-0.6c0-0.4,0.4-0.6,1.4-0.6c1.7,0,3.5,0.1,5.1,0.1c1.6,0.1,3.1,0.1,4,0.1c2,0,14.5,0,15.7-0.1
			c1.2-0.1,2.2-0.3,2.7-0.4c0.3-0.1,0.7-0.3,1-0.3c0.3,0,0.4,0.3,0.4,0.6c0,0.4-0.3,1.2-0.5,4.1c-0.1,0.6-0.2,3.4-0.3,4.2
			c-0.1,0.3-0.2,0.7-0.6,0.7c-0.4,0-0.6-0.3-0.6-0.9c0-0.4-0.1-1.5-0.4-2.3c-0.4-1.1-1.1-1.9-4.2-2.3c-1.1-0.1-7.7-0.3-8.9-0.3
			c-0.3,0-0.4,0.2-0.4,0.6v15.9c0,0.4,0.1,0.7,0.4,0.7c1.4,0,8.6,0,10.1-0.1c1.5-0.1,2.5-0.3,3-0.9c0.4-0.5,0.7-0.8,1-0.8
			c0.3,0,0.4,0.1,0.4,0.5c0,0.4-0.3,1.4-0.5,4.6c-0.1,1.3-0.3,3.8-0.3,4.2c0,0.5,0,1.2-0.6,1.2c-0.4,0-0.6-0.3-0.6-0.6
			c-0.1-0.6-0.1-1.4-0.3-2.3c-0.3-1.3-1.2-2.2-3.5-2.5c-1.2-0.1-7.4-0.2-8.9-0.2c-0.3,0-0.4,0.3-0.4,0.6v5c0,2.1-0.1,7.9,0,9.8
			c0.1,4.3,1.1,5.3,7.6,5.3c1.6,0,4.3,0,5.9-0.8c1.6-0.8,2.4-2.1,2.8-4.7c0.1-0.7,0.3-0.9,0.7-0.9c0.5,0,0.5,0.5,0.5,1.1
			c0,1.4-0.5,5.7-0.8,7c-0.4,1.6-1,1.6-3.4,1.6c-4.7,0-8.2-0.1-10.9-0.2c-2.7-0.1-4.7-0.2-6.6-0.2c-0.7,0-2.1,0-3.6,0.1
			c-1.4,0-3.1,0.1-4.3,0.1c-0.8,0-1.3-0.2-1.3-0.6c0-0.3,0.3-0.5,1-0.5c0.9,0,1.7-0.1,2.3-0.3c1.3-0.3,1.6-1.6,1.8-3.5
			c0.3-2.6,0.3-7.6,0.3-13.4V184.8z"/>
		<path class="st0" d="M453.4,205.6c0.1,4.9,0.9,6.6,2.2,7c1.1,0.4,2.3,0.4,3.3,0.4c0.7,0,1.1,0.1,1.1,0.5c0,0.5-0.6,0.6-1.4,0.6
			c-4.1,0-6.6-0.2-7.8-0.2c-0.6,0-3.5,0.2-6.8,0.2c-0.8,0-1.4-0.1-1.4-0.6c0-0.4,0.4-0.5,1-0.5c0.8,0,2-0.1,2.8-0.3
			c1.6-0.5,1.9-2.3,2-7.8l0.6-37.3c0-1.3,0.2-2.1,0.8-2.1c0.7,0,1.3,0.8,2.3,2c0.8,0.8,10.3,11.1,19.5,20.2
			c4.3,4.3,12.8,13.4,13.9,14.4h0.3l-0.6-28.3c-0.1-3.8-0.6-5-2.1-5.7c-0.9-0.4-2.5-0.4-3.3-0.4c-0.8,0-1-0.2-1-0.6
			c0-0.5,0.7-0.6,1.6-0.6c3.3,0,6.3,0.2,7.6,0.2c0.7,0,3.1-0.2,6.2-0.2c0.8,0,1.4,0.1,1.4,0.6c0,0.4-0.4,0.6-1.1,0.6
			c-0.6,0-1.1,0-1.9,0.2c-1.8,0.5-2.3,1.8-2.3,5.4l-0.7,39.7c0,1.4-0.3,2-0.8,2c-0.7,0-1.4-0.7-2.1-1.4c-4-3.8-12-12-18.6-18.5
			c-6.9-6.8-13.9-14.7-15-15.9h-0.2L453.4,205.6z"/>
		<path class="st0" d="M512,197.7c-0.3,0-0.4,0.1-0.6,0.5l-3.4,9c-0.6,1.6-0.9,3.1-0.9,3.8c0,1.1,0.6,2,2.5,2h0.9
			c0.8,0,0.9,0.1,0.9,0.5c0,0.5-0.4,0.6-1.1,0.6c-2,0-4.7-0.2-6.7-0.2c-0.7,0-4.2,0.2-7.4,0.2c-0.8,0-1.2-0.1-1.2-0.6
			c0-0.4,0.3-0.5,0.8-0.5c0.6,0,1.4-0.1,2-0.1c2.9-0.4,4.1-2.5,5.4-5.7l15.8-39.6c0.8-1.8,1.1-2.5,1.8-2.5c0.6,0,0.9,0.6,1.6,2
			c1.5,3.5,11.6,29.2,15.6,38.7c2.4,5.7,4.2,6.6,5.5,6.9c0.9,0.2,1.9,0.3,2.6,0.3c0.5,0,0.8,0.1,0.8,0.5c0,0.5-0.6,0.6-2.9,0.6
			c-2.3,0-6.9,0-11.9-0.1c-1.1-0.1-1.9-0.1-1.9-0.5c0-0.4,0.3-0.5,0.9-0.6c0.4-0.1,0.9-0.7,0.6-1.4l-5-13.4
			c-0.1-0.3-0.3-0.4-0.6-0.4H512z M524.9,194.5c0.3,0,0.4-0.2,0.3-0.4l-5.7-15.6c-0.1-0.3-0.1-0.6-0.3-0.6c-0.2,0-0.3,0.3-0.4,0.6
			l-5.8,15.5c-0.1,0.3,0,0.4,0.3,0.4H524.9z"/>
	</g>
	<g>
		<path class="st1" d="M176.7,214.2h35.3v-43.2c-3.2,3.4-8.2,5.3-14.8,4.6c0-10.6-10.5-14.2-16.5-11.8c-6.3,3.3-10.5,8.8-12.6,15.1
			c4.9,2.3,8,5.5,8,9.2c0,3.8-3.5,7.3-8.9,9.6C168.7,204.1,171.9,210,176.7,214.2"/>
	</g>
	<g>
		<path class="st2" d="M5.1,132.5V88.9c0-11.5,9.4-20.9,20.9-20.9h40v-40c0-11.5,9.4-20.9,20.9-20.9h43.6c11.5,0,20.9,9.4,20.9,20.9
			v40h40c11.5,0,20.9,9.4,20.9,20.9v57.2c-5.6-8.1-14.2-11.8-25.6-10.4c-13.5,1.2-24.9,16.2-24.2,32.2l0,0
			c-2.1-18.8,11.3-40.8,13.9-57.5c2.6-16.5-9.6-27.4-20.3-37.7c-0.5-0.4-4.6-3.7-4.6-3.8c-0.3,0.1-4,3.2-4.6,3.8
			c-10.7,10.2-22.9,21.2-20.3,37.7c2.6,16.8,16.3,39.1,13.9,58c1-16.3-10.5-31.5-24.2-32.7c-11.9-1.4-20.9,2.7-26.4,11.8
			c-8,13.2-2,30.2,15.6,28.2c0-10.6,10.5-14.2,16.5-11.8c6.3,3.3,10.5,8.8,12.6,15.1c-4.9,2.3-8,5.5-8,9.2c0,3.8,3.5,7.3,8.9,9.6
			c-1.4,6.4-4.6,12.4-9.5,16.6H86.8c-11.5,0-20.9-9.4-20.9-20.9v-40h-40C14.5,153.4,5.1,144,5.1,132.5"/>
	</g>
</g>
</svg>
